<svg width="20" height="19" viewBox="0 0 20 19" fill="none" xmlns="http://www.w3.org/2000/svg">
<path d="M15 17H5V18C5 18.2652 4.89464 18.5196 4.70711 18.7071C4.51957 18.8946 4.26522 19 4 19H3C2.73478 19 2.48043 18.8946 2.29289 18.7071C2.10536 18.5196 2 18.2652 2 18V17H1V9H0V5H1V2C1 1.46957 1.21071 0.960859 1.58579 0.585786C1.96086 0.210714 2.46957 0 3 0H17C17.5304 0 18.0391 0.210714 18.4142 0.585786C18.7893 0.960859 19 1.46957 19 2V5H20V9H19V17H18V18C18 18.2652 17.8946 18.5196 17.7071 18.7071C17.5196 18.8946 17.2652 19 17 19H16C15.7348 19 15.4804 18.8946 15.2929 18.7071C15.1054 18.5196 15 18.2652 15 18V17ZM17 9V2H3V9H17ZM17 11H3V15H17V11ZM4 12H8V14H4V12ZM12 12H16V14H12V12Z" fill="black"/>
</svg>
