<svg width="18" height="24" viewBox="0 0 18 24" fill="none" xmlns="http://www.w3.org/2000/svg">
<path d="M3.43934 17.5607C3.72064 17.842 4.10218 18 4.5 18C4.89782 18 5.27936 17.842 5.56066 17.5607C5.84196 17.2794 6 16.8978 6 16.5C6 16.1022 5.84196 15.7206 5.56066 15.4393C5.27936 15.158 4.89782 15 4.5 15C4.10218 15 3.72064 15.158 3.43934 15.4393C3.15804 15.7206 3 16.1022 3 16.5C3 16.8978 3.15804 17.2794 3.43934 17.5607Z" fill="#02C768"/>
<path d="M12.4393 17.5607C12.7206 17.842 13.1022 18 13.5 18C13.8978 18 14.2794 17.842 14.5607 17.5607C14.842 17.2794 15 16.8978 15 16.5C15 16.1022 14.842 15.7206 14.5607 15.4393C14.2794 15.158 13.8978 15 13.5 15C13.1022 15 12.7206 15.158 12.4393 15.4393C12.158 15.7206 12 16.1022 12 16.5C12 16.8978 12.158 17.2794 12.4393 17.5607Z" fill="#02C768"/>
<path fill-rule="evenodd" clip-rule="evenodd" d="M4 0C3.44772 0 3 0.447715 3 1C3 1.55228 3.44772 2 4 2H8V3H2C1.46957 3 0.960859 3.21071 0.585786 3.58579C0.210714 3.96086 0 4.46957 0 5V19C0 20.0655 0.8332 20.9364 1.88359 20.9967L1.10555 22.5528C0.858558 23.0467 1.05878 23.6474 1.55276 23.8944C2.04674 24.1414 2.64741 23.9412 2.8944 23.4472L3.8944 21.4472C3.96631 21.3034 4.00031 21.1505 4.00019 21H13.9998C13.9997 21.1505 14.0337 21.3034 14.1056 21.4472L15.1056 23.4472C15.3526 23.9412 15.9533 24.1414 16.4472 23.8944C16.9412 23.6474 17.1414 23.0467 16.8945 22.5528L16.1164 20.9967C17.1668 20.9364 18 20.0655 18 19V5C18 4.46957 17.7893 3.96086 17.4142 3.58579C17.0391 3.21071 16.5304 3 16 3H10V2H14C14.5523 2 15 1.55228 15 1C15 0.447715 14.5523 0 14 0H4ZM2 12V5H16V12H2ZM2 14H16V19H2V14Z" fill="#02C768"/>
</svg>
