<svg width="234" height="16" viewBox="0 0 234 16" fill="none" xmlns="http://www.w3.org/2000/svg">
<g opacity="0.5">
<path d="M0.292893 7.29289C-0.0976311 7.68342 -0.0976311 8.31658 0.292893 8.70711L6.65685 15.0711C7.04738 15.4616 7.68054 15.4616 8.07107 15.0711C8.46159 14.6805 8.46159 14.0474 8.07107 13.6569L2.41421 8L8.07107 2.34315C8.46159 1.95262 8.46159 1.31946 8.07107 0.928932C7.68054 0.538408 7.04738 0.538408 6.65685 0.928932L0.292893 7.29289ZM233.707 8.70711C234.098 8.31658 234.098 7.68342 233.707 7.29289L227.343 0.928932C226.953 0.538408 226.319 0.538408 225.929 0.928932C225.538 1.31946 225.538 1.95262 225.929 2.34315L231.586 8L225.929 13.6569C225.538 14.0474 225.538 14.6805 225.929 15.0711C226.319 15.4616 226.953 15.4616 227.343 15.0711L233.707 8.70711ZM1 9L233 9V7L1 7L1 9Z" fill="#02C768"/>
<path d="M0.292893 7.29289C-0.0976311 7.68342 -0.0976311 8.31658 0.292893 8.70711L6.65685 15.0711C7.04738 15.4616 7.68054 15.4616 8.07107 15.0711C8.46159 14.6805 8.46159 14.0474 8.07107 13.6569L2.41421 8L8.07107 2.34315C8.46159 1.95262 8.46159 1.31946 8.07107 0.928932C7.68054 0.538408 7.04738 0.538408 6.65685 0.928932L0.292893 7.29289ZM233.707 8.70711C234.098 8.31658 234.098 7.68342 233.707 7.29289L227.343 0.928932C226.953 0.538408 226.319 0.538408 225.929 0.928932C225.538 1.31946 225.538 1.95262 225.929 2.34315L231.586 8L225.929 13.6569C225.538 14.0474 225.538 14.6805 225.929 15.0711C226.319 15.4616 226.953 15.4616 227.343 15.0711L233.707 8.70711ZM1 9L233 9V7L1 7L1 9Z" fill="url(#paint0_linear)"/>
</g>
<defs>
<linearGradient id="paint0_linear" x1="5.55647" y1="8.99969" x2="233.38" y2="8.99969" gradientUnits="userSpaceOnUse">
<stop stop-color="white"/>
<stop offset="1" stop-color="white" stop-opacity="0"/>
</linearGradient>
</defs>
</svg>
