<svg width="16" height="16" viewBox="0 0 16 16" fill="none" xmlns="http://www.w3.org/2000/svg">
<path d="M14 7.99976C13.9999 6.66242 13.5529 5.36346 12.7302 4.30915C11.9074 3.25484 10.7561 2.50562 9.45885 2.18046C8.16164 1.8553 6.79298 1.97283 5.57021 2.51441C4.34744 3.05598 3.34065 3.99055 2.70972 5.1697C2.07878 6.34885 1.85987 7.70499 2.08774 9.02277C2.31562 10.3406 2.97722 11.5444 3.96748 12.4432C4.95774 13.342 6.2199 13.8843 7.55353 13.9838C8.88716 14.0833 10.2158 13.7344 11.3285 12.9925L12.161 14.2405C10.9297 15.0638 9.48122 15.5021 8 15.4998C3.85775 15.4998 0.5 12.142 0.5 7.99976C0.5 3.85751 3.85775 0.499756 8 0.499756C12.1423 0.499756 15.5 3.85751 15.5 7.99976V9.12476C15.5001 9.68632 15.3201 10.2331 14.9864 10.6848C14.6528 11.1365 14.183 11.4693 13.6463 11.6343C13.1095 11.7993 12.5339 11.7878 12.0042 11.6015C11.4744 11.4152 11.0184 11.0639 10.703 10.5993C10.2024 11.1198 9.56222 11.4846 8.85929 11.6501C8.15635 11.8155 7.4206 11.7745 6.74042 11.5319C6.06024 11.2894 5.46457 10.8555 5.02498 10.2826C4.58538 9.70969 4.32056 9.02202 4.26233 8.30223C4.2041 7.58244 4.35494 6.86115 4.69672 6.22501C5.0385 5.58887 5.55669 5.06495 6.18903 4.71618C6.82137 4.36742 7.54096 4.20865 8.26134 4.25895C8.98173 4.30926 9.67227 4.56649 10.25 4.99976H11.75V9.12476C11.75 9.42312 11.8685 9.70927 12.0795 9.92025C12.2905 10.1312 12.5766 10.2498 12.875 10.2498C13.1734 10.2498 13.4595 10.1312 13.6705 9.92025C13.8815 9.70927 14 9.42312 14 9.12476V7.99976ZM8 5.74976C7.40326 5.74976 6.83097 5.98681 6.40901 6.40877C5.98705 6.83072 5.75 7.40302 5.75 7.99976C5.75 8.59649 5.98705 9.16879 6.40901 9.59075C6.83097 10.0127 7.40326 10.2498 8 10.2498C8.59674 10.2498 9.16903 10.0127 9.59099 9.59075C10.0129 9.16879 10.25 8.59649 10.25 7.99976C10.25 7.40302 10.0129 6.83072 9.59099 6.40877C9.16903 5.98681 8.59674 5.74976 8 5.74976Z" fill="white"/>
</svg>
