<svg width="123" height="31" viewBox="0 0 123 31" fill="none" xmlns="http://www.w3.org/2000/svg">
<g clip-path="url(#clip0)">
<path d="M0 7.71533V23.1467L12.7781 30.2448V8.93718L8.36843 13.0209V23.7897L7.31066 23.2138V13.8748L4.58614 16.2905V21.7317L3.48924 21.1344V9.7284L13.3775 4.02468V0L0 7.71533Z" fill="#02C768"/>
<path d="M0 7.71533V23.1467L12.7781 30.2448V8.93718L8.36843 13.0209V23.7897L7.31066 23.2138V13.8748L4.58614 16.2905V21.7317L3.48924 21.1344V9.7284L13.3775 4.02468V0L0 7.71533Z" fill="url(#paint0_linear)"/>
<path d="M13.3775 0V4.02468L23.2659 9.7283V21.1343L22.1683 21.7316V16.2903L19.4445 13.8746V23.2137L18.3867 23.7896V13.0207L13.977 8.93707V30.2447L26.7551 23.1466V7.71522L13.3775 0Z" fill="#02C768"/>
<path d="M13.3775 0V4.02468L23.2659 9.7283V21.1343L22.1683 21.7316V16.2903L19.4445 13.8746V23.2137L18.3867 23.7896V13.0207L13.977 8.93707V30.2447L26.7551 23.1466V7.71522L13.3775 0Z" fill="url(#paint1_linear)"/>
</g>
<path d="M44.4308 21.1223L42.1628 16.4603H38.7428V21.1223H36.8528V8.16233H42.0908C42.4628 8.16233 42.7928 8.18633 43.0808 8.23433C44.1368 8.40233 44.9408 8.85233 45.4928 9.58433C46.0568 10.3163 46.3388 11.2283 46.3388 12.3203C46.3388 13.2083 46.1468 13.9823 45.7628 14.6423C45.3908 15.3023 44.8448 15.7883 44.1248 16.1003L46.5728 21.1223H44.4308ZM38.7428 14.6963H42.0188C42.3428 14.6963 42.6128 14.6663 42.8288 14.6063C43.3688 14.4863 43.7708 14.2103 44.0348 13.7783C44.2988 13.3463 44.4308 12.8603 44.4308 12.3203C44.4308 11.7803 44.2988 11.2943 44.0348 10.8623C43.7708 10.4303 43.3688 10.1483 42.8288 10.0163C42.6008 9.96833 42.3308 9.94433 42.0188 9.94433H38.7428V14.6963Z" fill="#2A353D"/>
<path d="M49.1358 16.7843C49.2078 17.6963 49.4778 18.3983 49.9458 18.8903C50.4138 19.3703 51.0558 19.6103 51.8718 19.6103C52.4598 19.6103 52.9698 19.4783 53.4018 19.2143C53.8338 18.9503 54.1698 18.5663 54.4098 18.0623L56.2458 18.6563C55.8738 19.5203 55.3038 20.1923 54.5358 20.6723C53.7798 21.1523 52.9278 21.3923 51.9798 21.3923C51.0198 21.3923 50.1678 21.1823 49.4238 20.7623C48.6918 20.3303 48.1218 19.7363 47.7138 18.9803C47.3178 18.2123 47.1198 17.3363 47.1198 16.3523C47.1198 15.3083 47.3178 14.3903 47.7138 13.5983C48.1098 12.8063 48.6678 12.2003 49.3878 11.7803C50.1078 11.3483 50.9358 11.1323 51.8718 11.1323C52.8558 11.1323 53.6958 11.3603 54.3918 11.8163C55.0998 12.2723 55.6218 12.9263 55.9578 13.7783C56.3058 14.6303 56.4498 15.6323 56.3898 16.7843H49.1358ZM51.9438 12.8063C51.1518 12.8063 50.5218 13.0223 50.0538 13.4543C49.5978 13.8743 49.3098 14.4983 49.1898 15.3263H54.4638C54.3678 14.4743 54.1098 13.8443 53.6898 13.4363C53.2698 13.0163 52.6878 12.8063 51.9438 12.8063Z" fill="#2A353D"/>
<path d="M64.8667 12.9863C65.0107 13.2863 65.1007 13.6043 65.1367 13.9403C65.1847 14.2643 65.2087 14.6603 65.2087 15.1283V21.1223H63.5527V19.7003C62.7607 20.8283 61.5907 21.3923 60.0427 21.3923C59.3467 21.3923 58.7527 21.2663 58.2607 21.0143C57.7687 20.7503 57.3967 20.3963 57.1447 19.9523C56.8927 19.5083 56.7667 19.0163 56.7667 18.4763C56.7667 17.0483 57.5347 16.0883 59.0707 15.5963C59.5147 15.4643 60.0847 15.3443 60.7807 15.2363C61.4767 15.1163 62.1787 15.0023 62.8867 14.8943L63.3727 14.8223C63.3367 14.1503 63.1447 13.6583 62.7967 13.3463C62.4487 13.0343 61.9087 12.8783 61.1767 12.8783C60.6247 12.8783 60.1447 13.0043 59.7367 13.2563C59.3287 13.5083 59.0407 13.8923 58.8727 14.4083L57.1267 13.8683C57.3667 13.0043 57.8287 12.3323 58.5127 11.8523C59.1967 11.3723 60.0847 11.1323 61.1767 11.1323C62.0767 11.1323 62.8447 11.2883 63.4807 11.6003C64.1167 11.9003 64.5787 12.3623 64.8667 12.9863ZM60.3847 19.8623C61.1287 19.8623 61.7407 19.6703 62.2207 19.2863C62.7127 18.9023 63.0247 18.4523 63.1567 17.9363C63.2767 17.6003 63.3367 17.0903 63.3367 16.4063L62.8507 16.4783C62.2747 16.5623 61.7287 16.6523 61.2127 16.7483C60.7087 16.8323 60.2947 16.9223 59.9707 17.0183C59.5387 17.1623 59.2027 17.3483 58.9627 17.5763C58.7347 17.8043 58.6207 18.0983 58.6207 18.4583C58.6207 18.8663 58.7707 19.2023 59.0707 19.4663C59.3707 19.7303 59.8087 19.8623 60.3847 19.8623Z" fill="#2A353D"/>
<path d="M66.8347 7.89233H68.7247V21.1223H66.8347V7.89233Z" fill="#2A353D"/>
<path d="M73.2219 8.16233H81.5019V9.94433H75.1119V13.5623H80.4219V15.3443H75.1119V19.3403H81.5019V21.1223H73.2219V8.16233Z" fill="#2A353D"/>
<path d="M86.4713 21.3923C85.2953 21.3923 84.3293 21.1343 83.5733 20.6183C82.8293 20.0903 82.3793 19.3523 82.2233 18.4043L84.1493 18.0983C84.2693 18.6023 84.5453 19.0043 84.9773 19.3043C85.4093 19.5923 85.9493 19.7363 86.5973 19.7363C87.1853 19.7363 87.6473 19.6163 87.9833 19.3763C88.3193 19.1363 88.4873 18.8063 88.4873 18.3863C88.4873 18.1223 88.4273 17.9183 88.3073 17.7743C88.1873 17.6303 87.9473 17.4923 87.5873 17.3603C87.2393 17.2283 86.6693 17.0543 85.8773 16.8383C85.0253 16.6103 84.3593 16.3763 83.8793 16.1363C83.3993 15.8843 83.0513 15.5963 82.8353 15.2723C82.6313 14.9363 82.5293 14.5283 82.5293 14.0483C82.5293 13.1723 82.8713 12.4703 83.5553 11.9423C84.2513 11.4023 85.1693 11.1323 86.3093 11.1323C87.4253 11.1323 88.3493 11.3963 89.0813 11.9243C89.8253 12.4403 90.2573 13.1303 90.3773 13.9943L88.4513 14.3363C88.3793 13.8563 88.1453 13.4783 87.7493 13.2023C87.3533 12.9263 86.8373 12.7883 86.2013 12.7883C85.6613 12.7883 85.2293 12.8963 84.9053 13.1123C84.5813 13.3163 84.4193 13.5983 84.4193 13.9583C84.4193 14.1743 84.4853 14.3543 84.6173 14.4983C84.7613 14.6423 85.0193 14.7863 85.3913 14.9303C85.7753 15.0743 86.3573 15.2423 87.1373 15.4343C87.9653 15.6503 88.6133 15.8843 89.0813 16.1363C89.5613 16.3883 89.9033 16.6883 90.1073 17.0363C90.3233 17.3723 90.4313 17.7983 90.4313 18.3143C90.4313 19.2743 90.0773 20.0303 89.3693 20.5823C88.6733 21.1223 87.7073 21.3923 86.4713 21.3923Z" fill="#2A353D"/>
<path d="M94.1777 17.1983C94.1777 17.2943 94.1777 17.4923 94.1777 17.7923C94.1777 18.0803 94.1897 18.3143 94.2137 18.4943C94.2497 18.6743 94.3037 18.8243 94.3757 18.9443C94.6397 19.4003 95.1557 19.6283 95.9237 19.6283C96.2837 19.6283 96.6677 19.5923 97.0757 19.5203V21.1223C96.5597 21.2303 96.0437 21.2843 95.5277 21.2843C94.8557 21.2843 94.2677 21.1763 93.7637 20.9603C93.2717 20.7443 92.8997 20.4023 92.6477 19.9343C92.5037 19.6583 92.4077 19.3823 92.3597 19.1063C92.3237 18.8183 92.3057 18.4763 92.3057 18.0803V12.9143H90.4337V11.4023H92.3057V8.70233H94.1777V11.4023H97.0757V12.9143H94.1777V17.1983Z" fill="#2A353D"/>
<path d="M105.767 12.9863C105.911 13.2863 106.001 13.6043 106.037 13.9403C106.085 14.2643 106.109 14.6603 106.109 15.1283V21.1223H104.453V19.7003C103.661 20.8283 102.491 21.3923 100.943 21.3923C100.247 21.3923 99.6535 21.2663 99.1615 21.0143C98.6695 20.7503 98.2975 20.3963 98.0455 19.9523C97.7935 19.5083 97.6675 19.0163 97.6675 18.4763C97.6675 17.0483 98.4355 16.0883 99.9715 15.5963C100.415 15.4643 100.985 15.3443 101.681 15.2363C102.377 15.1163 103.079 15.0023 103.787 14.8943L104.273 14.8223C104.237 14.1503 104.045 13.6583 103.697 13.3463C103.349 13.0343 102.809 12.8783 102.077 12.8783C101.525 12.8783 101.045 13.0043 100.637 13.2563C100.229 13.5083 99.9415 13.8923 99.7735 14.4083L98.0275 13.8683C98.2675 13.0043 98.7295 12.3323 99.4135 11.8523C100.097 11.3723 100.985 11.1323 102.077 11.1323C102.977 11.1323 103.745 11.2883 104.381 11.6003C105.017 11.9003 105.479 12.3623 105.767 12.9863ZM101.285 19.8623C102.029 19.8623 102.641 19.6703 103.121 19.2863C103.613 18.9023 103.925 18.4523 104.057 17.9363C104.177 17.6003 104.237 17.0903 104.237 16.4063L103.751 16.4783C103.175 16.5623 102.629 16.6523 102.113 16.7483C101.609 16.8323 101.195 16.9223 100.871 17.0183C100.439 17.1623 100.103 17.3483 99.8635 17.5763C99.6355 17.8043 99.5215 18.0983 99.5215 18.4583C99.5215 18.8663 99.6715 19.2023 99.9715 19.4663C100.271 19.7303 100.709 19.8623 101.285 19.8623Z" fill="#2A353D"/>
<path d="M110.22 17.1983C110.22 17.2943 110.22 17.4923 110.22 17.7923C110.22 18.0803 110.232 18.3143 110.256 18.4943C110.292 18.6743 110.346 18.8243 110.418 18.9443C110.682 19.4003 111.198 19.6283 111.966 19.6283C112.326 19.6283 112.71 19.5923 113.118 19.5203V21.1223C112.602 21.2303 112.086 21.2843 111.57 21.2843C110.898 21.2843 110.31 21.1763 109.806 20.9603C109.314 20.7443 108.942 20.4023 108.69 19.9343C108.546 19.6583 108.45 19.3823 108.402 19.1063C108.366 18.8183 108.348 18.4763 108.348 18.0803V12.9143H106.476V11.4023H108.348V8.70233H110.22V11.4023H113.118V12.9143H110.22V17.1983Z" fill="#2A353D"/>
<path d="M115.268 16.7843C115.34 17.6963 115.61 18.3983 116.078 18.8903C116.546 19.3703 117.188 19.6103 118.004 19.6103C118.592 19.6103 119.102 19.4783 119.534 19.2143C119.966 18.9503 120.302 18.5663 120.542 18.0623L122.378 18.6563C122.006 19.5203 121.436 20.1923 120.668 20.6723C119.912 21.1523 119.06 21.3923 118.112 21.3923C117.152 21.3923 116.3 21.1823 115.556 20.7623C114.824 20.3303 114.254 19.7363 113.846 18.9803C113.45 18.2123 113.252 17.3363 113.252 16.3523C113.252 15.3083 113.45 14.3903 113.846 13.5983C114.242 12.8063 114.8 12.2003 115.52 11.7803C116.24 11.3483 117.068 11.1323 118.004 11.1323C118.988 11.1323 119.828 11.3603 120.524 11.8163C121.232 12.2723 121.754 12.9263 122.09 13.7783C122.438 14.6303 122.582 15.6323 122.522 16.7843H115.268ZM118.076 12.8063C117.284 12.8063 116.654 13.0223 116.186 13.4543C115.73 13.8743 115.442 14.4983 115.322 15.3263H120.596C120.5 14.4743 120.242 13.8443 119.822 13.4363C119.402 13.0163 118.82 12.8063 118.076 12.8063Z" fill="#2A353D"/>
<defs>
<linearGradient id="paint0_linear" x1="-23" y1="-2.79913e-07" x2="13.3776" y2="30.2448" gradientUnits="userSpaceOnUse">
<stop stop-color="white"/>
<stop offset="1" stop-color="white" stop-opacity="0"/>
</linearGradient>
<linearGradient id="paint1_linear" x1="-23" y1="-2.79913e-07" x2="13.3776" y2="30.2448" gradientUnits="userSpaceOnUse">
<stop stop-color="white"/>
<stop offset="1" stop-color="white" stop-opacity="0"/>
</linearGradient>
<clipPath id="clip0">
<rect width="26.7551" height="30.2448" fill="white"/>
</clipPath>
</defs>
</svg>
