<svg width="14" height="14" viewBox="0 0 14 14" fill="none" xmlns="http://www.w3.org/2000/svg">
<path d="M5.0245 6.01126C5.72825 7.24762 6.75214 8.2715 7.9885 8.97526L8.6515 8.04676C8.75812 7.89746 8.91576 7.79242 9.0946 7.75151C9.27344 7.7106 9.46108 7.73666 9.622 7.82476C10.6827 8.40445 11.8542 8.75309 13.0592 8.84776C13.2473 8.86266 13.4229 8.94791 13.5509 9.0865C13.6789 9.22508 13.75 9.40683 13.75 9.59551V12.942C13.75 13.1277 13.6812 13.3068 13.5568 13.4447C13.4324 13.5825 13.2612 13.6693 13.0765 13.6883C12.679 13.7295 12.2785 13.7498 11.875 13.7498C5.455 13.7498 0.25 8.54476 0.25 2.12476C0.25 1.72126 0.27025 1.32076 0.3115 0.923256C0.330441 0.738529 0.417238 0.567396 0.555092 0.442981C0.692946 0.318566 0.872055 0.249716 1.05775 0.249756H4.40425C4.59292 0.249732 4.77467 0.32082 4.91326 0.448844C5.05185 0.576868 5.13709 0.752424 5.152 0.940506C5.24667 2.1456 5.59531 3.31702 6.175 4.37776C6.2631 4.53868 6.28916 4.72631 6.24825 4.90515C6.20734 5.08399 6.1023 5.24164 5.953 5.34826L5.0245 6.01126ZM3.133 5.51851L4.558 4.50076C4.15359 3.62783 3.87651 2.70139 3.73525 1.74976H1.7575C1.753 1.87426 1.75075 1.99951 1.75075 2.12476C1.75 7.71676 6.283 12.2498 11.875 12.2498C12.0002 12.2498 12.1255 12.2475 12.25 12.2423V10.2645C11.2984 10.1232 10.3719 9.84617 9.499 9.44176L8.48125 10.8668C8.0715 10.7075 7.6735 10.5196 7.29025 10.3043L7.24675 10.2795C5.77568 9.4423 4.55746 8.22407 3.72025 6.75301L3.6955 6.70951C3.48018 6.32625 3.29221 5.92826 3.133 5.51851Z" fill="white"/>
</svg>
