<svg width="42" height="42" viewBox="0 0 42 42" fill="none" xmlns="http://www.w3.org/2000/svg">
<path d="M11.1685 10.444C13.9576 8.20936 17.4262 6.9943 21 7C24.7188 7 28.1365 8.288 30.8315 10.444L33.3743 7.90125L35.8488 10.3757L33.306 12.9185C35.157 15.2358 36.3161 18.0286 36.6499 20.9755C36.9837 23.9224 36.4787 26.9037 35.193 29.5763C33.9073 32.2489 31.8931 34.5041 29.3822 36.0825C26.8713 37.6609 23.9658 38.4983 21 38.4983C18.0342 38.4983 15.1287 37.6609 12.6178 36.0825C10.107 34.5041 8.09276 32.2489 6.80702 29.5763C5.52129 26.9037 5.01627 23.9224 5.3501 20.9755C5.68393 18.0286 6.84303 15.2358 8.69401 12.9185L6.15126 10.3775L8.62576 7.903L11.1685 10.4457V10.444ZM21 35C22.6087 35 24.2016 34.6831 25.6879 34.0675C27.1741 33.4519 28.5245 32.5496 29.6621 31.4121C30.7996 30.2745 31.7019 28.9241 32.3175 27.4379C32.9332 25.9516 33.25 24.3587 33.25 22.75C33.25 21.1413 32.9332 19.5484 32.3175 18.0621C31.7019 16.5759 30.7996 15.2255 29.6621 14.0879C28.5245 12.9504 27.1741 12.0481 25.6879 11.4325C24.2016 10.8169 22.6087 10.5 21 10.5C17.7511 10.5 14.6353 11.7906 12.338 14.0879C10.0406 16.3853 8.75001 19.5011 8.75001 22.75C8.75001 25.9989 10.0406 29.1147 12.338 31.4121C14.6353 33.7094 17.7511 35 21 35ZM22.75 21H28L19.25 32.375V24.5H14L22.75 13.1163V21ZM14 1.75H28V5.25H14V1.75Z" fill="#02C768"/>
</svg>
