<svg width="65" height="59" viewBox="0 0 65 59" fill="none" xmlns="http://www.w3.org/2000/svg">
<path d="M33.8283 7.04167H61.3751C62.226 7.04167 63.042 7.37969 63.6437 7.98137C64.2454 8.58305 64.5834 9.3991 64.5834 10.25V55.1667C64.5834 56.0176 64.2454 56.8336 63.6437 57.4353C63.042 58.037 62.226 58.375 61.3751 58.375H3.62508C2.77418 58.375 1.95813 58.037 1.35645 57.4353C0.754768 56.8336 0.416748 56.0176 0.416748 55.1667V3.83333C0.416748 2.98243 0.754768 2.16638 1.35645 1.5647C1.95813 0.96302 2.77418 0.625 3.62508 0.625H27.4117L33.8283 7.04167ZM19.6667 19.875V35.6087C19.6667 38.4705 21.0977 41.1398 23.475 42.728L32.5001 48.7436L41.5251 42.728C42.6968 41.9464 43.6574 40.8876 44.3218 39.6457C44.9861 38.4038 45.3336 37.0171 45.3334 35.6087V19.875H19.6667ZM26.0834 35.6087V26.2917H38.9167V35.6087C38.9168 35.961 38.8298 36.3078 38.6636 36.6185C38.4974 36.9291 38.257 37.1939 37.9639 37.3893L32.5001 41.0308L27.0363 37.3893C26.7432 37.1939 26.5028 36.9291 26.3366 36.6185C26.1704 36.3078 26.0834 35.961 26.0834 35.6087Z" fill="white"/>
</svg>
