<svg width="42" height="42" viewBox="0 0 42 42" fill="none" xmlns="http://www.w3.org/2000/svg">
<path d="M21 38.5C11.3348 38.5 3.5 30.6653 3.5 21C3.5 11.3348 11.3348 3.5 21 3.5C30.6653 3.5 38.5 11.3348 38.5 21C38.5 30.6653 30.6653 38.5 21 38.5ZM21 35C24.713 35 28.274 33.525 30.8995 30.8995C33.525 28.274 35 24.713 35 21C35 17.287 33.525 13.726 30.8995 11.1005C28.274 8.475 24.713 7 21 7C17.287 7 13.726 8.475 11.1005 11.1005C8.475 13.726 7 17.287 7 21C7 24.713 8.475 28.274 11.1005 30.8995C13.726 33.525 17.287 35 21 35ZM19.25 26.25H22.75V29.75H19.25V26.25ZM22.75 23.3713V24.5H19.25V21.875C19.25 21.4109 19.4344 20.9658 19.7626 20.6376C20.0908 20.3094 20.5359 20.125 21 20.125C21.4971 20.125 21.9841 19.9838 22.4041 19.7178C22.8241 19.4519 23.16 19.0721 23.3726 18.6228C23.5852 18.1734 23.6659 17.6729 23.6052 17.1795C23.5445 16.6861 23.3449 16.22 23.0297 15.8356C22.7145 15.4512 22.2966 15.1642 21.8246 15.008C21.3527 14.8517 20.8461 14.8328 20.3638 14.9532C19.8814 15.0737 19.4432 15.3287 19.1001 15.6884C18.7571 16.0482 18.5232 16.498 18.4258 16.9855L14.9923 16.2978C15.2051 15.2339 15.6966 14.2457 16.4166 13.434C17.1366 12.6224 18.0592 12.0165 19.09 11.6783C20.1209 11.3401 21.2231 11.2817 22.284 11.5091C23.3448 11.7365 24.3262 12.2415 25.1279 12.9724C25.9296 13.7034 26.5229 14.6342 26.847 15.6696C27.171 16.705 27.2144 17.8079 26.9725 18.8655C26.7307 19.9232 26.2123 20.8976 25.4704 21.6893C24.7285 22.4809 23.7897 23.0613 22.75 23.3713Z" fill="#02C768"/>
</svg>
